<svg width="64" height="64" viewBox="0 0 64 64" fill="none" xmlns="http://www.w3.org/2000/svg">
  <rect width="64" height="64" rx="14" fill="#000000"/>
  <rect x="1.5" y="1.5" width="61" height="61" rx="12.5" stroke="#a3e635" stroke-opacity="0.25" stroke-width="3"/>
  <!-- bag body -->
  <path d="M20 26 L44 26 C46 26 47.6 27.4 48 29.3 L51 47 C51.5 50.3 49 53 45.7 53 L18.3 53 C15 53 12.5 50.3 13 47 L16 29.3 C16.4 27.4 18 26 20 26 Z" fill="#a3e635"/>
  <!-- bag neck/tie -->
  <path d="M24 26 C24 20 26 16 32 16 C38 16 40 20 40 26" stroke="#a3e635" stroke-width="4" stroke-linecap="round" fill="none"/>
  <!-- checkmark cut into bag -->
  <path d="M25 40 L30 45 L40 34" stroke="#000000" stroke-width="5" stroke-linecap="round" stroke-linejoin="round" fill="none"/>
</svg>
